<svg width="180" height="27" viewBox="0 0 180 27" fill="none" xmlns="http://www.w3.org/2000/svg">
<path d="M26.224 1.088V26H22.948V7.424L14.668 26H12.364L4.048 7.388V26H0.772V1.088H4.3L13.516 21.68L22.732 1.088H26.224ZM35.0558 0.907999V26H31.7798V0.907999H35.0558ZM43.9152 3.572V11.96H53.0592V14.66H43.9152V23.3H54.1392V26H40.6392V0.872H54.1392V3.572H43.9152ZM71.4442 26L66.1882 16.46H64.7122V26H58.5562V0.727999H68.8882C70.8802 0.727999 72.5722 1.076 73.9642 1.772C75.3802 2.468 76.4362 3.428 77.1322 4.652C77.8282 5.852 78.1762 7.196 78.1762 8.684C78.1762 10.364 77.6962 11.864 76.7362 13.184C75.8002 14.504 74.4082 15.44 72.5602 15.992L78.3922 26H71.4442ZM64.7122 12.104H68.5282C69.6562 12.104 70.4962 11.828 71.0482 11.276C71.6242 10.724 71.9122 9.944 71.9122 8.936C71.9122 7.976 71.6242 7.22 71.0482 6.668C70.4962 6.116 69.6562 5.84 68.5282 5.84H64.7122V12.104ZM97.7726 21.536H88.3406L86.8286 26H80.3846L89.5286 0.727999H96.6566L105.801 26H99.2846L97.7726 21.536ZM96.1886 16.784L93.0566 7.532L89.9606 16.784H96.1886ZM123.236 26L114.74 14.84V26H108.584V0.727999H114.74V11.816L123.164 0.727999H130.4L120.608 13.112L130.76 26H123.236ZM142.829 26.252C140.981 26.252 139.325 25.952 137.861 25.352C136.397 24.752 135.221 23.864 134.333 22.688C133.469 21.512 133.013 20.096 132.965 18.44H139.517C139.613 19.376 139.937 20.096 140.489 20.6C141.041 21.08 141.761 21.32 142.649 21.32C143.561 21.32 144.281 21.116 144.809 20.708C145.337 20.276 145.601 19.688 145.601 18.944C145.601 18.32 145.385 17.804 144.953 17.396C144.545 16.988 144.029 16.652 143.405 16.388C142.805 16.124 141.941 15.824 140.813 15.488C139.181 14.984 137.849 14.48 136.817 13.976C135.785 13.472 134.897 12.728 134.153 11.744C133.409 10.76 133.037 9.476 133.037 7.892C133.037 5.54 133.889 3.704 135.593 2.384C137.297 1.04 139.517 0.368 142.253 0.368C145.037 0.368 147.281 1.04 148.985 2.384C150.689 3.704 151.601 5.552 151.721 7.928H145.061C145.013 7.112 144.713 6.476 144.161 6.02C143.609 5.54 142.901 5.3 142.037 5.3C141.293 5.3 140.693 5.504 140.237 5.912C139.781 6.296 139.553 6.86 139.553 7.604C139.553 8.42 139.937 9.056 140.705 9.512C141.473 9.968 142.673 10.46 144.305 10.988C145.937 11.54 147.257 12.068 148.265 12.572C149.297 13.076 150.185 13.808 150.929 14.768C151.673 15.728 152.045 16.964 152.045 18.476C152.045 19.916 151.673 21.224 150.929 22.4C150.209 23.576 149.153 24.512 147.761 25.208C146.369 25.904 144.725 26.252 142.829 26.252ZM171.566 21.536H162.134L160.622 26H154.178L163.322 0.727999H170.45L179.594 26H173.078L171.566 21.536ZM169.982 16.784L166.85 7.532L163.754 16.784H169.982Z" fill="#FFF1F1"/>
</svg>
